<svg xmlns="http://www.w3.org/2000/svg" viewBox="0 0 80 80" style="enable-background:new 0 0 512 512" xml:space="preserve" width="80" height="80"><path style="fill:#b3404a" d="M59.419 80H20.581a2.298 2.298 0 0 1-2.298-2.298V59.379c0-11.975 9.742-21.717 21.717-21.717a2.298 2.298 0 0 1 0 4.596c-9.441 0-17.121 7.68-17.121 17.121v16.025h34.242V59.379c0-3.701-1.161-7.222-3.357-10.185a2.299 2.299 0 0 1 3.692-2.738 21.542 21.542 0 0 1 4.261 12.922v18.323a2.298 2.298 0 0 1-2.298 2.298z"/><path style="fill:#b3404a" d="M63.239 80H16.761a2.298 2.298 0 0 1 0-4.596h46.478a2.298 2.298 0 0 1 0 4.596z"/><path style="fill:#f4b2b0" d="M40 40.041c10.725 0 19.419-8.694 19.419-19.419V2.298H20.581v18.323c0 10.725 8.694 19.419 19.419 19.419z"/><path style="fill:#b3404a" d="M40 42.339c-11.975 0-21.717-9.742-21.717-21.717V2.298A2.298 2.298 0 0 1 20.581 0h38.838a2.298 2.298 0 0 1 2.298 2.298v18.323c0 11.975-9.742 21.717-21.717 21.717zM22.879 4.596v16.025c0 9.44 7.68 17.121 17.121 17.121 9.44 0 17.121-7.68 17.121-17.121V4.596H22.879z"/><path style="fill:#b3404a" d="M63.239 4.596H16.761a2.298 2.298 0 0 1 0-4.596h46.478a2.298 2.298 0 0 1 0 4.596zM40 56.534a2.298 2.298 0 0 1-2.298-2.298V39.959a2.298 2.298 0 0 1 4.596 0v14.277A2.298 2.298 0 0 1 40 56.534zm-7.584-42.618H21.041a2.298 2.298 0 0 1 0-4.596h11.376a2.298 2.298 0 0 1 0 4.596zM59.477 70.68H48.101a2.298 2.298 0 0 1 0-4.596h11.376a2.298 2.298 0 0 1 0 4.596z"/></svg>