<svg width="80" height="80" viewBox="0 0 12.8 12.8" xmlns="http://www.w3.org/2000/svg" aria-hidden="true" class="iconify iconify--noto"><radialGradient id="a" cx="68.884" cy="124.296" r="70.587" gradientTransform="matrix(-1 -.00434 -.00713 1.6408 131.986 -79.345)" gradientUnits="userSpaceOnUse"><stop offset=".314" stop-color="#ff9800"/><stop offset=".662" stop-color="#ff6d00"/><stop offset=".972" stop-color="#f44336"/></radialGradient><path d="M3.556 4.073c-.057.608-.097 1.684.262 2.142 0 0-.169-1.182 1.346-2.665.61-.597.751-1.409.538-2.018a2.353 2.353 0 0 0-.534-.829A.179.179 0 0 1 5.305.4c.986.044 2.584.318 3.263 2.022.298.748.32 1.521.178 2.307-.09.502-.41 1.618.32 1.755.521.098.773-.316.886-.614a.178.178 0 0 1 .298-.056c.88 1.001.955 2.18.773 3.195-.352 1.962-2.339 3.39-4.313 3.39-2.466 0-4.429-1.411-4.938-3.965-.205-1.031-.101-3.071 1.489-4.511.118-.108.311-.012.295.15z" fill="url(#a)"/><radialGradient id="b" cx="64.921" cy="54.062" r="73.86" gradientTransform="matrix(-.0101 .9999 .7525 .0076 26.154 -11.267)" gradientUnits="userSpaceOnUse"><stop offset=".214" stop-color="#fff176"/><stop offset=".328" stop-color="#fff27d"/><stop offset=".487" stop-color="#fff48f"/><stop offset=".672" stop-color="#fff7ad"/><stop offset=".793" stop-color="#fff9c4"/><stop offset=".822" stop-color="#fff8bd" stop-opacity=".804"/><stop offset=".863" stop-color="#fff6ab" stop-opacity=".529"/><stop offset=".91" stop-color="#fff38d" stop-opacity=".209"/><stop offset=".941" stop-color="#fff176" stop-opacity="0"/></radialGradient><path d="M7.611 7.742c-.909-1.17-.502-2.505-.279-3.037.03-.07-.05-.136-.113-.093-.391.266-1.192.892-1.565 1.773-.505 1.191-.469 1.774-.17 2.486.18.429-.029.52-.134.536-.102.016-.196-.052-.271-.123a1.609 1.609 0 0 1-.444-.76c-.016-.062-.097-.079-.134-.028-.28.387-.425 1.008-.432 1.447C4.047 11.3 5.168 12.4 6.524 12.4c1.709 0 2.954-1.89 1.972-3.47-.285-.46-.553-.761-.885-1.188z" fill="url(#b)"/></svg>