<svg width="80" height="80" viewBox="0 0 51.2 51.2" xmlns="http://www.w3.org/2000/svg" aria-hidden="true" class="iconify iconify--fxemoji"><path fill="#FFB636" d="M25.25 38.1 12.45 43a.873.873 0 0 1-1.18-.86l.7-13.69a.907.907 0 0 0-.19-.59L3.16 17.2a.87.87 0 0 1 .45-1.39l13.24-3.56c.21-.06.39-.19.5-.37L24.83.4a.87.87 0 0 1 1.46 0l7.48 11.49c.12.18.3.31.5.37l13.24 3.56c.61.16.85.9.45 1.39l-8.61 10.66c-.13.17-.2.38-.19.59l.7 13.69a.873.873 0 0 1-1.18.86l-12.8-4.9a.911.911 0 0 0-.63-.01z"/><path fill="#FFD469" d="m45.61 5.17-4.1-4.1a.523.523 0 0 0-.44-.15c-.16.02-.31.12-.39.26l-4.23 8.33c-.12.21-.08.46.09.63a.53.53 0 0 0 .63.08L45.49 6c.14-.08.24-.22.26-.39a.516.516 0 0 0-.14-.44zm-30.7 4.35-4.23-8.33a.517.517 0 0 0-.39-.26.512.512 0 0 0-.44.15l-4.1 4.1c-.12.12-.17.28-.15.44.02.16.12.31.26.39l8.33 4.23c.08.05.17.07.26.07.14 0 .27-.05.37-.15.17-.18.2-.44.09-.64zm14.07 41-2.9-8.88a.478.478 0 0 0-.13-.23c-.1-.1-.23-.15-.37-.15-.24 0-.44.16-.51.39l-2.9 8.88c-.04.16-.01.33.09.46.1.13.25.21.42.21h5.79c.16 0 .32-.08.42-.21.11-.14.14-.31.09-.47z"/></svg>